<?xml version="1.0" standalone="no"?>
<!DOCTYPE svg PUBLIC "-//W3C//DTD SVG 20010904//EN"
 "http://www.w3.org/TR/2001/REC-SVG-20010904/DTD/svg10.dtd">
<svg version="1.0" xmlns="http://www.w3.org/2000/svg"
 width="768.000000pt" height="768.000000pt" viewBox="0 0 768.000000 768.000000"
 preserveAspectRatio="xMidYMid meet">
<metadata>
Created by potrace 1.14, written by Peter Selinger 2001-2017
</metadata>
<g transform="translate(0.000000,768.000000) scale(0.100000,-0.100000)"
fill="#000000" stroke="none">
<path d="M0 3840 l0 -3840 3840 0 3840 0 0 3840 0 3840 -3840 0 -3840 0 0
-3840z m4065 2550 c328 -31 602 -108 900 -254 411 -202 752 -499 1005 -879
179 -267 316 -599 379 -912 37 -187 45 -277 45 -505 0 -129 -5 -264 -12 -315
-77 -545 -297 -1020 -650 -1405 -515 -562 -1228 -864 -1977 -837 -201 8 -348
29 -541 77 -193 49 -313 93 -499 185 -260 127 -439 252 -643 449 -230 223
-385 433 -521 707 -362 728 -362 1550 0 2278 241 487 628 881 1109 1130 441
228 928 325 1405 281z"/>
<path d="M3356 6094 c-329 -71 -679 -236 -942 -445 -41 -33 -74 -63 -74 -67 0
-20 524 -254 535 -240 1 2 17 30 35 63 104 188 295 445 454 613 49 50 82 92
75 91 -8 0 -45 -7 -83 -15z"/>
<path d="M4314 6020 c159 -168 301 -356 419 -555 39 -66 72 -121 73 -123 9
-15 534 220 534 239 0 5 -30 33 -67 63 -274 220 -672 403 -1007 461 l-40 7 88
-92z"/>
<path d="M3628 5923 c-89 -86 -215 -231 -306 -353 -88 -118 -194 -292 -184
-301 18 -17 324 -66 470 -75 l102 -7 0 401 c0 221 -3 402 -6 402 -3 0 -37 -30
-76 -67z"/>
<path d="M3970 5588 l0 -401 101 7 c154 10 453 57 471 75 18 16 -181 310 -311
461 -79 92 -242 260 -253 260 -4 0 -8 -181 -8 -402z"/>
<path d="M2057 5298 c-293 -362 -469 -793 -513 -1255 l-7 -73 480 0 480 0 12
138 c16 184 44 346 91 529 37 144 115 374 147 437 8 15 11 32 6 36 -4 4 -44
19 -88 35 -107 38 -276 115 -407 187 -59 32 -111 58 -117 58 -5 0 -43 -42 -84
-92z"/>
<path d="M5455 5349 c-123 -70 -329 -164 -487 -223 -27 -10 -48 -20 -48 -22 0
-3 6 -17 14 -32 34 -66 112 -301 151 -457 44 -172 78 -383 91 -552 l7 -93 479
0 480 0 -7 73 c-41 454 -218 888 -508 1249 -43 54 -84 98 -90 97 -7 0 -43 -18
-82 -40z"/>
<path d="M2958 4913 c-111 -279 -198 -670 -198 -884 l0 -59 475 0 475 0 0 479
0 479 -82 7 c-149 11 -321 35 -448 62 -69 14 -136 28 -150 30 -24 4 -28 -2
-72 -114z"/>
<path d="M4511 4999 c-133 -28 -304 -52 -458 -64 l-83 -7 0 -479 0 -479 475 0
475 0 0 53 c0 79 -27 284 -56 420 -50 237 -172 588 -204 586 -8 -1 -75 -14
-149 -30z"/>
<path d="M1545 3633 c41 -449 219 -886 508 -1245 43 -54 83 -98 88 -98 5 0 58
26 117 58 129 71 276 139 401 186 51 19 95 37 98 39 2 3 -2 18 -10 34 -35 67
-112 301 -152 458 -44 172 -78 383 -91 553 l-7 92 -479 0 -480 0 7 -77z"/>
<path d="M2760 3651 c0 -214 87 -605 198 -884 44 -112 48 -118 72 -114 14 2
81 16 150 30 127 27 299 51 448 62 l82 7 0 479 0 479 -475 0 -475 0 0 -59z"/>
<path d="M3970 3231 l0 -479 83 -7 c153 -12 321 -35 471 -66 81 -17 149 -29
151 -27 11 12 100 255 129 348 62 207 116 513 116 657 l0 53 -475 0 -475 0 0
-479z"/>
<path d="M5176 3618 c-13 -170 -47 -381 -91 -553 -40 -157 -117 -391 -152
-458 -8 -16 -13 -30 -11 -32 2 -2 44 -19 93 -38 133 -51 302 -129 415 -192 55
-30 104 -55 109 -55 14 0 152 174 226 285 141 212 270 519 325 770 22 102 49
288 50 338 l0 27 -479 0 -478 0 -7 -92z"/>
<path d="M3555 2483 c-181 -21 -404 -60 -417 -72 -17 -15 142 -253 286 -431
73 -89 242 -267 268 -281 17 -9 18 7 18 391 l0 400 -62 -1 c-35 -1 -76 -4 -93
-6z"/>
<path d="M3970 2090 c0 -221 4 -400 9 -400 11 0 190 186 261 271 136 163 319
435 302 450 -20 20 -415 79 -524 79 l-48 0 0 -400z"/>
<path d="M2760 2299 c-119 -45 -420 -189 -420 -200 0 -13 126 -111 235 -183
232 -155 585 -298 839 -341 l40 -7 -89 94 c-162 170 -357 433 -456 615 -19 35
-36 63 -39 62 -3 0 -52 -18 -110 -40z"/>
<path d="M4750 2243 c-108 -190 -272 -408 -435 -581 l-87 -93 43 7 c72 11 280
70 385 110 133 49 327 148 449 230 109 72 235 170 235 183 0 12 -303 156 -423
201 -59 22 -108 40 -110 40 -1 -1 -27 -44 -57 -97z"/>
</g>
</svg>
